<?xml version="1.0" encoding="utf-8"?>
<!-- Generator: Adobe Illustrator 16.0.0, SVG Export Plug-In . SVG Version: 6.00 Build 0)  -->
<!DOCTYPE svg PUBLIC "-//W3C//DTD SVG 1.1//EN" "http://www.w3.org/Graphics/SVG/1.1/DTD/svg11.dtd">
<svg version="1.1" id="Layer_1" xmlns="http://www.w3.org/2000/svg" xmlns:xlink="http://www.w3.org/1999/xlink" x="0px" y="0px"
	 width="449.405px" height="99.475px" viewBox="0 0 449.405 99.475" enable-background="new 0 0 449.405 99.475"
	 xml:space="preserve">
<g>
	<path fill-rule="evenodd" clip-rule="evenodd" d="M352.71,25.543h26.701c8.019,0,14.117,0.745,17.546,2.66
		c3.445,1.906,4.967,5.338,4.967,9.916v22.126H387.8V39.256c0-2.67-0.761-4.195-1.906-4.953c-1.142-0.762-3.803-1.141-7.622-1.141
		h-11.444v27.083H352.71V25.543z"/>
	<rect x="134.915" y="12.562" fill-rule="evenodd" clip-rule="evenodd" width="14.875" height="47.684"/>
	<path fill-rule="evenodd" clip-rule="evenodd" d="M86.863,40.408v-8.391h36.608v28.228H90.289c-6.106,0-11.059-0.378-14.117-1.147
		c-3.431-0.383-6.481-1.53-9.523-3.053c-3.817-1.912-6.489-4.574-8.396-7.63c-1.916-3.048-2.674-6.858-2.674-11.05
		c0-8.399,2.674-14.496,8.404-18.695c5.708-3.817,14.486-6.108,26.306-6.108h33.182v8.394H90.289c-6.106,0-10.682,1.14-13.342,3.811
		c-2.68,2.678-4.206,6.485-4.206,12.209c0,4.955,1.526,8.777,4.206,11.066c2.66,2.289,7.236,3.43,13.342,3.43h17.553V40.408H86.863z
		"/>
	<path fill-rule="evenodd" clip-rule="evenodd" fill="#C1D82F" d="M187.169,53.38c4.204,0,7.639-1.151,9.928-2.674
		c2.289-1.919,3.805-4.583,3.805-8.005c0-3.059-1.516-5.727-3.805-7.641c-2.289-1.898-5.724-2.662-9.928-2.662
		c-4.57,0-8.003,0.764-10.292,2.662c-2.287,1.914-3.429,4.582-3.429,7.641c0,3.422,1.142,6.086,3.429,8.005
		C179.166,52.229,182.599,53.38,187.169,53.38 M187.169,60.624c-8.766,0-16.018-1.526-20.977-4.579
		c-5.337-3.434-8.007-7.63-8.007-13.344c0-5.336,2.67-9.924,8.007-12.968c4.959-3.445,12.211-4.968,20.977-4.968
		c0.774,0,1.532,0.011,2.277,0.037c7.694,0.247,13.8,1.789,18.326,4.931c5.341,3.044,8.007,7.632,8.007,12.968
		c0,5.714-2.666,9.91-7.629,13.344C202.811,59.098,195.944,60.624,187.169,60.624"/>
	<path fill-rule="evenodd" clip-rule="evenodd" d="M251.252,52.611c4.188,0,7.252-0.76,8.77-2.281c2.302-1.15,3.439-3.82,3.439-7.25
		c0-3.824-1.138-6.105-3.439-8.02c-1.904-1.142-5.018-2.188-8.833-2.188c-0.795,0-1.791-0.096-3.752-0.096h-8.396v19.834h9.537
		H251.252z M251.252,60.245h-26.701V12.562h14.49v12.981h12.211c5.341,0,9.535,0.373,12.966,1.134
		c3.444,0.767,6.104,2.289,8.396,4.198c1.91,1.523,3.435,3.044,4.568,4.967c0.769,1.896,1.54,4.188,1.54,6.469
		c0,5.73-2.674,9.918-7.248,12.972c-4.582,3.433-11.067,4.963-19.453,4.963H251.252z"/>
	<path fill-rule="evenodd" clip-rule="evenodd" d="M312.66,60.245h-11.069c-5.337,0-9.524-0.763-12.577-2.678
		c-2.67-1.895-4.189-4.188-4.189-7.237c0-4.207,1.52-6.876,4.95-8.773c3.438-1.527,8.772-2.677,16.792-2.677h6.094h12.588v-0.761
		c0-1.909-1.144-3.436-2.672-4.2c-1.902-0.757-5.339-1.521-9.916-1.521h-0.372h-24.037v-6.855h24.409h4.97
		c7.618,0,12.959,0.745,16.772,3.045c3.817,2.287,5.722,5.331,5.722,9.913v21.744H312.66z M312.66,52.999h12.588v-6.876H312.66
		h-4.195c-3.427,0-5.655-0.137-7.038,0.628c-1.372,0.761-1.731,1.664-1.731,3.196c0,1.144,0.408,1.866,1.52,2.664
		c0.615,0.44,3.056,0.388,6.108,0.388H312.66z"/>
	<path fill-rule="evenodd" clip-rule="evenodd" fill="#C1D82F" d="M3.704,38.501c3.815,3.429,19.455,17.172,19.455,17.172
		S5.062,70.057,3.53,71.203c-2.478,1.982-5.325-0.805-3.257-3.342C9.665,60.053,7.124,46.426,0,40.879
		C-1.86,38.867,1.24,35.708,3.704,38.501"/>
	<path fill-rule="evenodd" clip-rule="evenodd" fill="#C1D82F" d="M3.704-2.38c3.815,3.429,19.455,17.172,19.455,17.172
		S5.062,29.177,3.53,30.322c-2.478,1.981-5.325-0.809-3.257-3.342C9.665,19.17,7.124,5.544,0,0C-1.86-2.014,1.24-5.174,3.704-2.38"
		/>
	<path fill-rule="evenodd" clip-rule="evenodd" fill="#C1D82F" d="M28.233,19.051c3.815,3.426,19.455,17.174,19.455,17.174
		S29.593,50.609,28.059,51.752c-2.478,1.982-5.327-0.803-3.253-3.342c9.386-7.807,6.846-21.434-0.277-26.976
		C22.671,19.419,25.768,16.26,28.233,19.051"/>
	<path fill-rule="evenodd" clip-rule="evenodd" d="M408.785,25.543h10.303V12.562h14.107v12.981h15.255v6.855h-15.255V46.51
		c0,2.277,0.761,4.196,2.283,5.342c1.153,0.76,3.444,1.528,6.869,1.528h6.103v6.865h-12.972c-5.342,0-9.529-1.147-12.199-3.046
		c-3.048-1.526-4.191-4.588-4.191-8.02V32.398h-10.303V25.543z"/>
	<g>
		<path d="M226.28,76.897l1.709,6.442c0.342,1.418,0.684,2.76,0.92,4.074h0.079c0.289-1.287,0.71-2.656,1.131-4.049l2.078-6.468
			h1.945l1.971,6.362c0.474,1.498,0.842,2.867,1.131,4.154h0.079c0.21-1.287,0.552-2.629,0.973-4.127l1.814-6.39h2.288
			l-4.103,12.726h-2.103l-1.945-6.074c-0.447-1.445-0.815-2.707-1.132-4.206h-0.052c-0.316,1.524-0.71,2.866-1.156,4.233
			l-2.051,6.047h-2.104l-3.838-12.726H226.28z"/>
		<path d="M253.913,83.654c0.052,3.129,2.023,4.418,4.338,4.418c1.655,0,2.682-0.291,3.523-0.633l0.419,1.631
			c-0.813,0.368-2.234,0.814-4.259,0.814c-3.891,0-6.257-2.602-6.257-6.415c0-3.864,2.287-6.888,5.994-6.888
			c4.154,0,5.232,3.655,5.232,5.995c0,0.474-0.026,0.841-0.079,1.104L253.913,83.654z M260.67,81.998
			c0.025-1.445-0.605-3.76-3.182-3.76c-2.367,0-3.365,2.156-3.551,3.76H260.67z"/>
		<path d="M296.084,86.573c0,1.104,0.053,2.183,0.185,3.05h-2.077l-0.212-1.604h-0.077c-0.685,0.998-2.077,1.893-3.891,1.893
			c-2.577,0-3.894-1.814-3.894-3.655c0-3.075,2.735-4.758,7.652-4.732v-0.263c0-1.051-0.289-2.97-2.893-2.944
			c-1.209,0-2.444,0.342-3.339,0.946l-0.526-1.551c1.054-0.657,2.604-1.104,4.208-1.104c3.918,0,4.863,2.655,4.863,5.206V86.573z
			 M293.823,83.129c-2.525-0.052-5.39,0.395-5.39,2.865c0,1.525,0.999,2.208,2.155,2.208c1.683,0,2.761-1.052,3.129-2.128
			c0.079-0.238,0.105-0.5,0.105-0.736V83.129z"/>
		<path d="M307.703,80.867c0-1.498-0.024-2.787-0.104-3.97h2.024l0.104,2.498h0.078c0.58-1.71,1.998-2.787,3.551-2.787
			c0.235,0,0.42,0.026,0.63,0.079v2.156c-0.263-0.027-0.499-0.053-0.813-0.053c-1.631,0-2.787,1.234-3.104,2.944
			c-0.052,0.342-0.078,0.71-0.078,1.104v6.783h-2.313L307.703,80.867z"/>
		<path d="M325.004,83.654c0.053,3.129,2.025,4.418,4.338,4.418c1.657,0,2.684-0.291,3.523-0.633l0.421,1.631
			c-0.815,0.368-2.235,0.814-4.259,0.814c-3.891,0-6.258-2.602-6.258-6.415c0-3.864,2.287-6.888,5.994-6.888
			c4.154,0,5.231,3.655,5.231,5.995c0,0.474-0.024,0.841-0.077,1.104L325.004,83.654z M331.762,81.998
			c0.025-1.445-0.605-3.76-3.182-3.76c-2.367,0-3.365,2.156-3.55,3.76H331.762z"/>
		<path d="M358.237,80.867c0-1.498-0.025-2.787-0.105-3.97h2.025l0.105,2.498h0.077c0.579-1.71,1.998-2.787,3.55-2.787
			c0.236,0,0.421,0.026,0.631,0.079v2.156c-0.263-0.027-0.5-0.053-0.814-0.053c-1.631,0-2.787,1.234-3.102,2.944
			c-0.054,0.342-0.08,0.71-0.08,1.104v6.783h-2.312L358.237,80.867z"/>
		<path d="M375.537,83.654c0.053,3.129,2.024,4.418,4.338,4.418c1.655,0,2.682-0.291,3.523-0.633l0.42,1.631
			c-0.814,0.368-2.235,0.814-4.26,0.814c-3.891,0-6.258-2.602-6.258-6.415c0-3.864,2.289-6.888,5.995-6.888
			c4.155,0,5.232,3.655,5.232,5.995c0,0.474-0.026,0.841-0.079,1.104L375.537,83.654z M382.294,81.998
			c0.025-1.445-0.605-3.76-3.181-3.76c-2.367,0-3.367,2.156-3.551,3.76H382.294z"/>
		<path d="M404.248,86.573c0,1.104,0.052,2.183,0.183,3.05h-2.076l-0.211-1.604h-0.078c-0.684,0.998-2.078,1.893-3.892,1.893
			c-2.576,0-3.892-1.814-3.892-3.655c0-3.075,2.734-4.758,7.65-4.732v-0.263c0-1.051-0.289-2.97-2.892-2.944
			c-1.209,0-2.444,0.342-3.339,0.946l-0.525-1.551c1.052-0.657,2.603-1.104,4.206-1.104c3.918,0,4.865,2.655,4.865,5.206V86.573z
			 M401.985,83.129c-2.523-0.052-5.389,0.395-5.389,2.865c0,1.525,0.999,2.208,2.155,2.208c1.683,0,2.762-1.052,3.129-2.128
			c0.079-0.238,0.104-0.5,0.104-0.736V83.129z"/>
		<path d="M426.832,70.955v15.381c0,1.131,0.026,2.42,0.104,3.287h-2.076l-0.106-2.209h-0.053c-0.709,1.42-2.233,2.498-4.311,2.498
			c-3.077,0-5.47-2.603-5.47-6.468c-0.024-4.261,2.631-6.836,5.707-6.836c1.971,0,3.286,0.921,3.838,1.919h0.053v-7.572H426.832z
			 M424.519,82.077c0-0.315-0.027-0.684-0.105-0.999c-0.342-1.447-1.604-2.656-3.339-2.656c-2.393,0-3.813,2.104-3.813,4.891
			c0,2.604,1.289,4.732,3.76,4.732c1.553,0,2.972-1.052,3.393-2.76c0.078-0.315,0.105-0.632,0.105-1V82.077z"/>
		<path d="M439.398,76.897l2.762,7.519c0.314,0.842,0.631,1.841,0.842,2.604h0.053c0.236-0.763,0.498-1.734,0.814-2.656l2.523-7.466
			h2.445l-3.471,9.071c-1.656,4.363-2.787,6.599-4.364,7.992c-1.157,0.973-2.261,1.367-2.839,1.473l-0.579-1.945
			c0.579-0.159,1.341-0.527,2.025-1.131c0.63-0.5,1.393-1.395,1.945-2.577c0.104-0.237,0.183-0.395,0.183-0.552
			c0-0.132-0.053-0.314-0.183-0.579l-4.681-11.752H439.398z"/>
	</g>
</g>
</svg>
